<mxfile host="app.diagrams.net" modified="2023-10-26T09:09:21.795Z" agent="Mozilla/5.0 (X11; Linux x86_64; rv:109.0) Gecko/20100101 Firefox/118.0" etag="gieBxfqigwpbOiZots22" version="22.0.8" type="google">
  <diagram name="Page-1" id="QpZKVCnjFUm9KnxyLNTg">
    <mxGraphModel dx="1034" dy="654" grid="1" gridSize="10" guides="1" tooltips="1" connect="1" arrows="1" fold="1" page="1" pageScale="1" pageWidth="850" pageHeight="1100" math="0" shadow="0">
      <root>
        <mxCell id="0" />
        <mxCell id="1" parent="0" />
        <mxCell id="OIpaHZ6V-vhUYQasgXzR-6" value="" style="edgeStyle=orthogonalEdgeStyle;rounded=0;orthogonalLoop=1;jettySize=auto;html=1;" edge="1" parent="1" source="OIpaHZ6V-vhUYQasgXzR-4" target="OIpaHZ6V-vhUYQasgXzR-5">
          <mxGeometry relative="1" as="geometry" />
        </mxCell>
        <mxCell id="OIpaHZ6V-vhUYQasgXzR-4" value="Landing" style="rounded=1;whiteSpace=wrap;html=1;" vertex="1" parent="1">
          <mxGeometry x="320" y="20" width="120" height="60" as="geometry" />
        </mxCell>
        <mxCell id="OIpaHZ6V-vhUYQasgXzR-8" value="" style="edgeStyle=orthogonalEdgeStyle;rounded=0;orthogonalLoop=1;jettySize=auto;html=1;" edge="1" parent="1" source="OIpaHZ6V-vhUYQasgXzR-5" target="OIpaHZ6V-vhUYQasgXzR-7">
          <mxGeometry relative="1" as="geometry" />
        </mxCell>
        <mxCell id="OIpaHZ6V-vhUYQasgXzR-5" value="Connexion / Inscription" style="rounded=1;whiteSpace=wrap;html=1;" vertex="1" parent="1">
          <mxGeometry x="320" y="120" width="120" height="60" as="geometry" />
        </mxCell>
        <mxCell id="OIpaHZ6V-vhUYQasgXzR-10" value="" style="edgeStyle=orthogonalEdgeStyle;rounded=0;orthogonalLoop=1;jettySize=auto;html=1;entryX=0.5;entryY=0;entryDx=0;entryDy=0;" edge="1" parent="1" target="OIpaHZ6V-vhUYQasgXzR-9">
          <mxGeometry relative="1" as="geometry">
            <mxPoint x="380" y="270" as="sourcePoint" />
            <mxPoint x="100" y="310" as="targetPoint" />
            <Array as="points">
              <mxPoint x="380" y="300" />
              <mxPoint x="180" y="300" />
            </Array>
          </mxGeometry>
        </mxCell>
        <mxCell id="OIpaHZ6V-vhUYQasgXzR-23" style="edgeStyle=orthogonalEdgeStyle;rounded=0;orthogonalLoop=1;jettySize=auto;html=1;entryX=0.5;entryY=0;entryDx=0;entryDy=0;" edge="1" parent="1" source="OIpaHZ6V-vhUYQasgXzR-7" target="OIpaHZ6V-vhUYQasgXzR-21">
          <mxGeometry relative="1" as="geometry" />
        </mxCell>
        <mxCell id="OIpaHZ6V-vhUYQasgXzR-26" style="edgeStyle=orthogonalEdgeStyle;rounded=0;orthogonalLoop=1;jettySize=auto;html=1;entryX=0.5;entryY=0;entryDx=0;entryDy=0;" edge="1" parent="1" source="OIpaHZ6V-vhUYQasgXzR-7" target="OIpaHZ6V-vhUYQasgXzR-24">
          <mxGeometry relative="1" as="geometry">
            <Array as="points">
              <mxPoint x="380" y="300" />
              <mxPoint x="580" y="300" />
            </Array>
          </mxGeometry>
        </mxCell>
        <mxCell id="OIpaHZ6V-vhUYQasgXzR-27" style="edgeStyle=orthogonalEdgeStyle;rounded=0;orthogonalLoop=1;jettySize=auto;html=1;entryX=0.5;entryY=0;entryDx=0;entryDy=0;exitX=0.5;exitY=1;exitDx=0;exitDy=0;" edge="1" parent="1" source="OIpaHZ6V-vhUYQasgXzR-7" target="OIpaHZ6V-vhUYQasgXzR-25">
          <mxGeometry relative="1" as="geometry" />
        </mxCell>
        <mxCell id="OIpaHZ6V-vhUYQasgXzR-29" value="" style="edgeStyle=orthogonalEdgeStyle;rounded=0;orthogonalLoop=1;jettySize=auto;html=1;exitX=0.5;exitY=1;exitDx=0;exitDy=0;" edge="1" parent="1" source="OIpaHZ6V-vhUYQasgXzR-7" target="OIpaHZ6V-vhUYQasgXzR-28">
          <mxGeometry relative="1" as="geometry" />
        </mxCell>
        <mxCell id="OIpaHZ6V-vhUYQasgXzR-7" value="Accueil" style="rounded=1;whiteSpace=wrap;html=1;" vertex="1" parent="1">
          <mxGeometry x="320" y="220" width="120" height="60" as="geometry" />
        </mxCell>
        <mxCell id="OIpaHZ6V-vhUYQasgXzR-12" value="" style="edgeStyle=orthogonalEdgeStyle;rounded=0;orthogonalLoop=1;jettySize=auto;html=1;entryX=0;entryY=0.5;entryDx=0;entryDy=0;exitX=0.5;exitY=1;exitDx=0;exitDy=0;" edge="1" parent="1" source="OIpaHZ6V-vhUYQasgXzR-9" target="OIpaHZ6V-vhUYQasgXzR-11">
          <mxGeometry relative="1" as="geometry" />
        </mxCell>
        <mxCell id="OIpaHZ6V-vhUYQasgXzR-20" style="edgeStyle=orthogonalEdgeStyle;rounded=0;orthogonalLoop=1;jettySize=auto;html=1;entryX=0;entryY=0.5;entryDx=0;entryDy=0;" edge="1" parent="1" source="OIpaHZ6V-vhUYQasgXzR-9" target="OIpaHZ6V-vhUYQasgXzR-19">
          <mxGeometry relative="1" as="geometry" />
        </mxCell>
        <mxCell id="OIpaHZ6V-vhUYQasgXzR-9" value="Animaux" style="rounded=1;whiteSpace=wrap;html=1;fillColor=#dae8fc;strokeColor=#6c8ebf;" vertex="1" parent="1">
          <mxGeometry x="120" y="320" width="120" height="60" as="geometry" />
        </mxCell>
        <mxCell id="OIpaHZ6V-vhUYQasgXzR-14" value="" style="edgeStyle=orthogonalEdgeStyle;rounded=0;orthogonalLoop=1;jettySize=auto;html=1;entryX=0;entryY=0.5;entryDx=0;entryDy=0;" edge="1" parent="1" source="OIpaHZ6V-vhUYQasgXzR-11" target="OIpaHZ6V-vhUYQasgXzR-13">
          <mxGeometry relative="1" as="geometry" />
        </mxCell>
        <mxCell id="OIpaHZ6V-vhUYQasgXzR-17" style="edgeStyle=orthogonalEdgeStyle;rounded=0;orthogonalLoop=1;jettySize=auto;html=1;entryX=0;entryY=0.5;entryDx=0;entryDy=0;" edge="1" parent="1" source="OIpaHZ6V-vhUYQasgXzR-11" target="OIpaHZ6V-vhUYQasgXzR-15">
          <mxGeometry relative="1" as="geometry" />
        </mxCell>
        <mxCell id="OIpaHZ6V-vhUYQasgXzR-18" style="edgeStyle=orthogonalEdgeStyle;rounded=0;orthogonalLoop=1;jettySize=auto;html=1;entryX=0;entryY=0.5;entryDx=0;entryDy=0;" edge="1" parent="1" source="OIpaHZ6V-vhUYQasgXzR-11" target="OIpaHZ6V-vhUYQasgXzR-16">
          <mxGeometry relative="1" as="geometry" />
        </mxCell>
        <mxCell id="OIpaHZ6V-vhUYQasgXzR-11" value="Sélection de l&#39;animal" style="rounded=1;whiteSpace=wrap;html=1;" vertex="1" parent="1">
          <mxGeometry x="200" y="400" width="120" height="60" as="geometry" />
        </mxCell>
        <mxCell id="OIpaHZ6V-vhUYQasgXzR-13" value="Fiche de santé" style="rounded=1;whiteSpace=wrap;html=1;" vertex="1" parent="1">
          <mxGeometry x="280" y="480" width="120" height="60" as="geometry" />
        </mxCell>
        <mxCell id="OIpaHZ6V-vhUYQasgXzR-15" value="Caméra" style="rounded=1;whiteSpace=wrap;html=1;" vertex="1" parent="1">
          <mxGeometry x="280" y="560" width="120" height="60" as="geometry" />
        </mxCell>
        <mxCell id="OIpaHZ6V-vhUYQasgXzR-16" value="Friandises" style="rounded=1;whiteSpace=wrap;html=1;" vertex="1" parent="1">
          <mxGeometry x="280" y="640" width="120" height="60" as="geometry" />
        </mxCell>
        <mxCell id="OIpaHZ6V-vhUYQasgXzR-19" value="Ajouter un animal" style="rounded=1;whiteSpace=wrap;html=1;" vertex="1" parent="1">
          <mxGeometry x="200" y="730" width="120" height="60" as="geometry" />
        </mxCell>
        <mxCell id="OIpaHZ6V-vhUYQasgXzR-21" value="Appareils" style="rounded=1;whiteSpace=wrap;html=1;fillColor=#dae8fc;strokeColor=#6c8ebf;" vertex="1" parent="1">
          <mxGeometry x="320" y="320" width="120" height="60" as="geometry" />
        </mxCell>
        <mxCell id="OIpaHZ6V-vhUYQasgXzR-24" value="Carte" style="rounded=1;whiteSpace=wrap;html=1;fillColor=#dae8fc;strokeColor=#6c8ebf;" vertex="1" parent="1">
          <mxGeometry x="520" y="320" width="120" height="60" as="geometry" />
        </mxCell>
        <mxCell id="OIpaHZ6V-vhUYQasgXzR-25" value="Trouver un vétérinaire" style="rounded=1;whiteSpace=wrap;html=1;fillColor=#dae8fc;strokeColor=#6c8ebf;" vertex="1" parent="1">
          <mxGeometry x="700" y="320" width="120" height="60" as="geometry" />
        </mxCell>
        <mxCell id="OIpaHZ6V-vhUYQasgXzR-32" style="edgeStyle=orthogonalEdgeStyle;rounded=0;orthogonalLoop=1;jettySize=auto;html=1;entryX=0;entryY=0.5;entryDx=0;entryDy=0;" edge="1" parent="1" source="OIpaHZ6V-vhUYQasgXzR-28" target="OIpaHZ6V-vhUYQasgXzR-31">
          <mxGeometry relative="1" as="geometry" />
        </mxCell>
        <mxCell id="OIpaHZ6V-vhUYQasgXzR-28" value="Paramètres" style="rounded=1;whiteSpace=wrap;html=1;fillColor=#f5f5f5;strokeColor=#666666;fontColor=#333333;" vertex="1" parent="1">
          <mxGeometry x="880" y="320" width="120" height="60" as="geometry" />
        </mxCell>
        <mxCell id="OIpaHZ6V-vhUYQasgXzR-31" value="Profil" style="rounded=1;whiteSpace=wrap;html=1;" vertex="1" parent="1">
          <mxGeometry x="960" y="400" width="120" height="60" as="geometry" />
        </mxCell>
      </root>
    </mxGraphModel>
  </diagram>
</mxfile>
